<svg width="703" height="229" viewBox="0 0 703 229" fill="none" xmlns="http://www.w3.org/2000/svg">
<path d="M199.771 223.36C198.427 223.36 197.755 223 197.755 222.28C197.755 221.896 197.899 221.584 198.187 221.344C198.523 221.104 199.027 220.864 199.699 220.624C202.675 219.856 204.715 218.176 205.819 215.584C210.139 205.648 214.411 194.848 218.635 183.184C219.067 181.888 219.403 180.784 219.643 179.872C219.931 178.912 220.123 178.264 220.219 177.928C221.947 177.496 223.315 177.064 224.323 176.632C225.091 176.248 225.715 175.768 226.195 175.192C226.723 174.568 227.035 174.208 227.131 174.112C227.515 173.824 227.803 173.872 227.995 174.256C228.091 174.448 228.307 175.048 228.643 176.056C230.419 181.72 232.459 188.128 234.763 195.28C237.115 202.384 238.747 207.304 239.659 210.04L241.315 214.936C241.939 216.76 242.755 218.104 243.763 218.968C244.771 219.784 246.091 220.384 247.723 220.768C249.019 221.056 249.667 221.584 249.667 222.352C249.667 222.928 249.115 223.216 248.011 223.216L243.043 223.072C240.883 222.928 238.843 222.856 236.923 222.856C235.867 222.856 234.139 222.904 231.739 223C229.531 223.096 228.019 223.144 227.203 223.144C226.675 223.144 226.243 223.072 225.907 222.928C225.571 222.736 225.403 222.472 225.403 222.136C225.403 221.368 226.051 220.864 227.347 220.624C228.979 220.336 230.155 219.952 230.875 219.472C231.643 218.944 232.027 218.248 232.027 217.384C232.027 217.048 232.003 216.808 231.955 216.664C231.571 214.552 230.731 211.288 229.435 206.872C229.339 206.44 229.171 206.152 228.931 206.008C228.739 205.864 228.403 205.792 227.923 205.792H214.963C214.387 205.792 213.979 206.224 213.739 207.088C212.299 211.36 211.411 214.288 211.075 215.872C211.027 216.112 211.003 216.448 211.003 216.88C211.003 217.888 211.339 218.68 212.011 219.256C212.731 219.832 213.859 220.312 215.395 220.696C216.691 220.984 217.339 221.488 217.339 222.208C217.339 222.496 217.171 222.736 216.835 222.928C216.547 223.072 216.139 223.144 215.611 223.144L212.155 223.072C210.523 222.976 209.179 222.928 208.123 222.928C207.451 222.928 206.659 222.952 205.747 223C204.883 223.096 204.235 223.144 203.803 223.144C202.459 223.288 201.115 223.36 199.771 223.36ZM226.915 202.48C227.299 202.48 227.563 202.456 227.707 202.408C227.851 202.36 227.923 202.24 227.923 202.048C227.923 202 227.875 201.736 227.779 201.256L222.739 184.624C222.499 183.952 222.331 183.616 222.235 183.616C222.187 183.616 222.019 183.928 221.731 184.552L215.683 201.256C215.587 201.448 215.539 201.64 215.539 201.832C215.539 202.264 215.995 202.48 216.907 202.48H226.915ZM251.894 223.216C251.51 223.216 251.174 223.144 250.886 223C250.598 222.856 250.454 222.64 250.454 222.352C250.454 222.016 250.598 221.752 250.886 221.56C251.174 221.32 251.582 221.104 252.11 220.912C252.254 220.864 252.614 220.744 253.19 220.552C253.814 220.36 254.27 220.072 254.558 219.688C254.846 219.304 254.99 218.8 254.99 218.176V183.04C254.99 181.6 254.75 180.448 254.27 179.584C253.838 178.672 253.07 178.096 251.966 177.856C251.726 177.808 251.534 177.688 251.39 177.496C251.294 177.304 251.246 177.064 251.246 176.776C251.246 176.2 251.462 175.864 251.894 175.768C253.862 175.336 256.742 174.424 260.534 173.032L262.046 172.456C262.334 172.312 262.574 172.24 262.766 172.24C263.198 172.24 263.414 172.48 263.414 172.96C263.414 173.296 263.342 174.064 263.198 175.264C263.054 176.416 262.982 177.832 262.982 179.512V218.104C262.982 218.92 263.174 219.496 263.558 219.832C263.942 220.12 264.374 220.36 264.854 220.552C265.334 220.696 265.646 220.792 265.79 220.84C266.894 221.176 267.446 221.656 267.446 222.28C267.446 222.568 267.302 222.784 267.014 222.928C266.774 223.072 266.438 223.144 266.006 223.144C264.998 223.144 263.726 223.096 262.19 223C260.75 222.904 259.622 222.856 258.806 222.856C257.99 222.856 256.91 222.904 255.566 223C254.51 223.144 253.286 223.216 251.894 223.216ZM283.127 224.008C280.535 224.008 278.207 223.336 276.143 221.992C274.127 220.648 272.543 218.8 271.391 216.448C270.239 214.048 269.663 211.336 269.663 208.312C269.663 205.432 270.335 202.768 271.679 200.32C273.071 197.872 274.919 195.928 277.223 194.488C279.527 193.048 282.047 192.328 284.783 192.328C287.807 192.328 290.327 193.24 292.343 195.064C294.359 196.888 295.367 199.192 295.367 201.976C295.367 202.84 295.175 203.488 294.791 203.92C294.455 204.352 293.903 204.568 293.135 204.568H278.519C277.847 204.568 277.367 204.76 277.079 205.144C276.791 205.528 276.647 206.176 276.647 207.088C276.647 209.104 277.079 210.928 277.943 212.56C278.807 214.192 279.983 215.488 281.471 216.448C283.007 217.408 284.711 217.888 286.583 217.888C289.079 217.888 291.479 216.856 293.783 214.792C294.167 214.408 294.479 214.216 294.719 214.216C294.911 214.216 295.079 214.312 295.223 214.504C295.367 214.648 295.439 214.84 295.439 215.08C295.439 215.704 295.151 216.52 294.575 217.528C293.711 219.352 292.247 220.888 290.183 222.136C288.119 223.384 285.767 224.008 283.127 224.008ZM283.631 201.76C285.743 201.76 287.279 201.64 288.239 201.4C288.671 201.304 288.887 200.68 288.887 199.528C288.887 198.232 288.383 197.152 287.375 196.288C286.415 195.376 285.215 194.92 283.775 194.92C282.767 194.92 281.783 195.232 280.823 195.856C279.863 196.432 279.071 197.2 278.447 198.16C277.871 199.072 277.583 199.984 277.583 200.896C277.583 201.472 277.919 201.76 278.591 201.76H283.631ZM298.359 223.288C297.255 223.288 296.703 223.024 296.703 222.496C296.703 222.112 296.823 221.824 297.063 221.632C297.303 221.392 297.687 221.2 298.215 221.056C298.839 220.864 299.463 220.504 300.087 219.976C300.711 219.448 301.479 218.56 302.391 217.312L308.655 208.672C308.991 208.288 309.159 207.976 309.159 207.736C309.159 207.544 309.039 207.256 308.799 206.872L303.183 198.592C302.511 197.488 301.935 196.696 301.455 196.216C301.023 195.736 300.447 195.376 299.727 195.136C298.767 194.8 298.287 194.32 298.287 193.696C298.287 193.168 298.863 192.904 300.015 192.904C301.023 192.904 302.103 192.952 303.255 193.048C304.119 193.192 305.247 193.264 306.639 193.264C307.455 193.264 308.439 193.216 309.591 193.12C310.839 193.024 311.895 192.976 312.759 192.976C313.911 192.976 314.487 193.264 314.487 193.84C314.487 194.128 314.367 194.344 314.127 194.488C313.935 194.632 313.695 194.752 313.407 194.848C313.167 194.944 312.999 195.016 312.903 195.064C312.327 195.256 311.871 195.472 311.535 195.712C311.247 195.904 311.103 196.216 311.103 196.648C311.103 197.224 311.415 197.944 312.039 198.808L315.351 203.704C315.447 203.896 315.543 203.992 315.639 203.992C315.783 203.992 315.903 203.896 315.999 203.704L318.663 199.312C319.239 198.352 319.503 197.464 319.455 196.648C319.455 195.928 319.071 195.448 318.303 195.208C317.775 195.016 317.391 194.848 317.151 194.704C316.911 194.512 316.791 194.248 316.791 193.912C316.791 193.336 317.343 193.048 318.447 193.048L321.111 193.12C321.543 193.168 322.095 193.192 322.767 193.192C323.391 193.192 324.183 193.144 325.143 193.048C326.007 192.952 326.751 192.904 327.375 192.904C328.431 192.904 328.959 193.144 328.959 193.624C328.959 194.008 328.839 194.32 328.599 194.56C328.407 194.752 328.047 194.944 327.519 195.136C326.031 195.616 324.591 196.768 323.199 198.592L318.231 205.432C317.991 205.816 317.871 206.08 317.871 206.224C317.871 206.416 317.991 206.704 318.231 207.088L324.567 217.168C325.815 219.136 327.255 220.384 328.887 220.912C329.415 221.152 329.799 221.368 330.039 221.56C330.279 221.752 330.399 222.04 330.399 222.424C330.399 222.904 329.847 223.144 328.743 223.144C327.687 223.144 326.439 223.096 324.999 223C323.943 222.856 322.671 222.784 321.183 222.784C320.415 222.784 319.263 222.832 317.727 222.928C316.191 223.024 314.943 223.072 313.983 223.072C312.879 223.072 312.327 222.784 312.327 222.208C312.327 221.824 312.447 221.56 312.687 221.416C312.975 221.224 313.407 221.032 313.983 220.84C314.655 220.648 315.159 220.384 315.495 220.048C315.879 219.664 316.071 219.112 316.071 218.392C316.071 217.72 315.831 217 315.351 216.232L311.463 210.4C311.415 210.352 311.343 210.328 311.247 210.328C311.151 210.328 311.079 210.352 311.031 210.4L307.215 216.736C306.687 217.504 306.423 218.272 306.423 219.04C306.423 220.048 306.831 220.696 307.647 220.984C307.743 221.032 307.935 221.128 308.223 221.272C308.559 221.416 308.799 221.584 308.943 221.776C309.135 221.92 309.231 222.112 309.231 222.352C309.231 222.688 309.039 222.904 308.655 223C308.319 223.144 307.959 223.216 307.575 223.216L305.919 223.144C305.247 223.096 304.383 223.072 303.327 223.072L300.663 223.144C299.799 223.24 299.031 223.288 298.359 223.288ZM350.421 223.288C349.989 223.288 349.605 223.192 349.269 223C348.933 222.808 348.765 222.568 348.765 222.28C348.765 221.896 348.909 221.608 349.197 221.416C349.485 221.176 349.941 220.984 350.565 220.84C352.245 220.456 353.373 219.952 353.949 219.328C354.573 218.656 354.885 217.528 354.885 215.944V183.328C354.885 181.696 354.621 180.568 354.093 179.944C353.613 179.272 352.509 178.744 350.781 178.36C349.581 178.168 348.981 177.688 348.981 176.92C348.981 176.584 349.125 176.344 349.413 176.2C349.749 176.008 350.157 175.912 350.637 175.912C351.933 175.912 353.589 175.96 355.605 176.056C357.525 176.152 358.893 176.2 359.709 176.2C360.573 176.2 362.013 176.152 364.029 176.056C366.237 175.96 367.989 175.912 369.285 175.912C370.293 175.912 370.797 176.272 370.797 176.992C370.797 177.376 370.653 177.664 370.365 177.856C370.125 178.048 369.669 178.216 368.997 178.36C367.125 178.84 365.853 179.44 365.181 180.16C364.557 180.832 364.245 181.912 364.245 183.4V196.792C364.245 197.368 364.605 197.656 365.325 197.656H386.853C387.381 197.656 387.645 197.32 387.645 196.648V183.328C387.645 181.936 387.309 180.88 386.637 180.16C386.013 179.392 384.789 178.792 382.965 178.36C382.293 178.216 381.813 178.048 381.525 177.856C381.237 177.664 381.093 177.376 381.093 176.992C381.093 176.272 381.621 175.912 382.677 175.912C383.925 175.912 385.701 175.96 388.005 176.056C390.117 176.152 391.653 176.2 392.613 176.2C393.381 176.2 394.629 176.152 396.357 176.056C398.277 175.96 399.909 175.912 401.253 175.912C401.733 175.912 402.117 176.008 402.405 176.2C402.741 176.344 402.909 176.584 402.909 176.92C402.909 177.64 402.309 178.12 401.109 178.36C399.429 178.744 398.325 179.296 397.797 180.016C397.269 180.688 397.005 181.792 397.005 183.328V215.944C397.005 217.528 397.269 218.656 397.797 219.328C398.373 220 399.501 220.504 401.181 220.84C401.805 220.984 402.261 221.176 402.549 221.416C402.837 221.608 402.981 221.896 402.981 222.28C402.981 222.568 402.813 222.808 402.477 223C402.141 223.192 401.757 223.288 401.325 223.288C399.693 223.288 398.085 223.216 396.501 223.072C394.581 222.976 393.165 222.928 392.253 222.928C391.389 222.928 389.901 222.976 387.789 223.072C385.581 223.168 383.853 223.216 382.605 223.216C381.597 223.216 381.093 222.88 381.093 222.208C381.093 221.824 381.213 221.536 381.453 221.344C381.741 221.152 382.197 220.984 382.821 220.84C384.597 220.456 385.845 219.904 386.565 219.184C387.285 218.464 387.645 217.384 387.645 215.944V202.264C387.645 201.496 387.405 201.112 386.925 201.112H365.037C364.749 201.112 364.533 201.208 364.389 201.4C364.293 201.544 364.245 201.808 364.245 202.192V215.656C364.245 217.096 364.653 218.224 365.469 219.04C366.285 219.856 367.581 220.456 369.357 220.84C370.029 220.984 370.485 221.152 370.725 221.344C371.013 221.536 371.157 221.824 371.157 222.208C371.157 222.88 370.629 223.216 369.573 223.216C368.325 223.216 366.597 223.168 364.389 223.072C362.181 222.976 360.621 222.928 359.709 222.928C358.749 222.928 357.261 222.976 355.245 223.072C353.661 223.216 352.053 223.288 350.421 223.288ZM420.096 224.008C417.504 224.008 415.176 223.336 413.112 221.992C411.096 220.648 409.512 218.8 408.36 216.448C407.208 214.048 406.632 211.336 406.632 208.312C406.632 205.432 407.304 202.768 408.648 200.32C410.04 197.872 411.888 195.928 414.192 194.488C416.496 193.048 419.016 192.328 421.752 192.328C424.776 192.328 427.296 193.24 429.312 195.064C431.328 196.888 432.336 199.192 432.336 201.976C432.336 202.84 432.144 203.488 431.76 203.92C431.424 204.352 430.872 204.568 430.104 204.568H415.488C414.816 204.568 414.336 204.76 414.048 205.144C413.76 205.528 413.616 206.176 413.616 207.088C413.616 209.104 414.048 210.928 414.912 212.56C415.776 214.192 416.952 215.488 418.44 216.448C419.976 217.408 421.68 217.888 423.552 217.888C426.048 217.888 428.448 216.856 430.752 214.792C431.136 214.408 431.448 214.216 431.688 214.216C431.88 214.216 432.048 214.312 432.192 214.504C432.336 214.648 432.408 214.84 432.408 215.08C432.408 215.704 432.12 216.52 431.544 217.528C430.68 219.352 429.216 220.888 427.152 222.136C425.088 223.384 422.736 224.008 420.096 224.008ZM420.6 201.76C422.712 201.76 424.248 201.64 425.208 201.4C425.64 201.304 425.856 200.68 425.856 199.528C425.856 198.232 425.352 197.152 424.344 196.288C423.384 195.376 422.184 194.92 420.744 194.92C419.736 194.92 418.752 195.232 417.792 195.856C416.832 196.432 416.04 197.2 415.416 198.16C414.84 199.072 414.552 199.984 414.552 200.896C414.552 201.472 414.888 201.76 415.56 201.76H420.6ZM437.103 223.216C436.719 223.216 436.407 223.144 436.167 223C435.927 222.808 435.807 222.568 435.807 222.28C435.807 221.656 436.287 221.224 437.247 220.984C438.447 220.696 439.287 220.384 439.767 220.048C440.247 219.664 440.487 219.088 440.487 218.32V202.696C440.487 201.16 440.247 200.008 439.767 199.24C439.287 198.472 438.471 197.992 437.319 197.8C437.079 197.752 436.887 197.632 436.743 197.44C436.599 197.2 436.527 196.936 436.527 196.648C436.527 196.024 436.791 195.664 437.319 195.568C440.487 194.848 443.799 193.528 447.255 191.608C447.927 191.272 448.359 191.104 448.551 191.104C449.079 191.104 449.343 191.344 449.343 191.824L449.127 194.272C448.743 197.344 448.551 199.936 448.551 202.048V218.248C448.551 218.968 448.767 219.52 449.199 219.904C449.679 220.24 450.543 220.6 451.791 220.984C452.319 221.176 452.703 221.368 452.943 221.56C453.183 221.704 453.303 221.944 453.303 222.28C453.303 222.856 452.871 223.144 452.007 223.144C451.095 223.144 449.775 223.096 448.047 223C446.511 222.904 445.311 222.856 444.447 222.856C443.679 222.856 442.527 222.904 440.991 223C439.791 223.144 438.495 223.216 437.103 223.216ZM444.303 186.928C442.911 186.928 441.735 186.448 440.775 185.488C439.815 184.528 439.335 183.376 439.335 182.032C439.335 180.592 439.815 179.392 440.775 178.432C441.735 177.424 442.911 176.92 444.303 176.92C445.743 176.92 446.943 177.424 447.903 178.432C448.863 179.392 449.343 180.592 449.343 182.032C449.343 183.424 448.863 184.6 447.903 185.56C446.943 186.472 445.743 186.928 444.303 186.928ZM465.708 224.008C462.396 224.008 459.636 223.192 457.428 221.56C457.092 220.936 456.828 219.904 456.636 218.464C456.444 217.024 456.372 215.584 456.42 214.144C456.42 213.856 456.54 213.64 456.78 213.496C457.02 213.352 457.308 213.28 457.644 213.28C457.932 213.28 458.196 213.376 458.436 213.568C458.724 213.76 458.916 213.976 459.012 214.216C459.828 216.424 460.86 218.152 462.108 219.4C463.356 220.6 464.772 221.2 466.356 221.2C467.652 221.2 468.684 220.816 469.452 220.048C470.268 219.232 470.676 218.224 470.676 217.024C470.676 215.824 470.244 214.792 469.38 213.928C468.516 213.064 467.196 212.128 465.42 211.12C462.876 209.728 460.932 208.288 459.588 206.8C458.292 205.312 457.644 203.464 457.644 201.256C457.644 198.616 458.652 196.456 460.668 194.776C462.684 193.096 465.324 192.256 468.588 192.256C470.028 192.256 471.348 192.424 472.548 192.76C473.796 193.048 474.708 193.384 475.284 193.768C475.668 194.248 475.98 195.112 476.22 196.36C476.46 197.608 476.58 198.952 476.58 200.392C476.58 200.584 476.46 200.752 476.22 200.896C476.028 200.992 475.788 201.04 475.5 201.04C475.164 201.04 474.828 200.968 474.492 200.824C474.156 200.632 473.94 200.416 473.844 200.176C472.5 196.576 470.604 194.776 468.156 194.776C467.004 194.776 465.996 195.136 465.132 195.856C464.268 196.576 463.836 197.536 463.836 198.736C463.836 199.696 464.22 200.584 464.988 201.4C465.804 202.216 467.052 203.08 468.732 203.992C471.9 205.72 474.108 207.328 475.356 208.816C476.652 210.256 477.3 212.152 477.3 214.504C477.3 217.432 476.268 219.76 474.204 221.488C472.188 223.168 469.356 224.008 465.708 224.008ZM494.411 224.008C491.531 224.008 489.347 223.24 487.859 221.704C486.371 220.168 485.627 217.936 485.627 215.008V198.376C485.627 197.944 485.459 197.656 485.123 197.512C484.787 197.32 484.187 197.2 483.323 197.152H482.531C482.243 197.152 482.003 196.936 481.811 196.504C481.619 196.072 481.523 195.616 481.523 195.136C481.523 194.8 481.667 194.56 481.955 194.416C483.395 193.744 484.955 192.736 486.635 191.392C488.363 190.048 489.851 188.776 491.099 187.576C491.195 187.48 491.387 187.312 491.675 187.072C491.963 186.784 492.299 186.64 492.683 186.64C493.499 186.64 493.859 187.048 493.763 187.864L493.331 191.824V192.112C493.331 192.544 493.475 192.856 493.763 193.048C494.051 193.192 494.507 193.264 495.131 193.264H503.555C503.699 193.264 503.843 193.432 503.987 193.768C504.131 194.104 504.203 194.44 504.203 194.776C504.203 195.4 504.107 195.976 503.915 196.504C503.723 197.032 503.531 197.296 503.339 197.296H496.499C495.347 197.296 494.579 197.416 494.195 197.656C493.811 197.896 493.619 198.4 493.619 199.168V212.992C493.619 215.104 494.027 216.712 494.843 217.816C495.659 218.872 496.811 219.4 498.299 219.4C499.547 219.4 500.507 219.304 501.179 219.112C501.851 218.92 502.547 218.608 503.267 218.176C503.363 218.08 503.507 218.032 503.699 218.032C503.891 218.032 504.035 218.176 504.131 218.464C504.275 218.704 504.347 219.016 504.347 219.4C504.347 219.688 503.843 220.216 502.835 220.984C501.827 221.752 500.555 222.448 499.019 223.072C497.531 223.696 495.995 224.008 494.411 224.008Z" fill="#555555"/>
<path d="M51.1712 157.53C47.4899 159.697 43.8105 160.638 40.1331 160.352C39.3518 160.255 38.6788 160.011 38.114 159.619C36.3977 158.123 34.5215 155.552 32.4855 151.904C32.1689 151.367 32.4035 150.866 33.1894 150.404C33.5203 150.209 33.805 150.125 34.0435 150.152C34.2991 150.113 34.5534 150.213 34.8066 150.454C37.5431 153.021 40.2914 154.661 43.0515 155.376C45.8116 156.09 48.2878 155.802 50.48 154.511C52.4241 153.366 53.5977 151.812 54.0009 149.848C54.4042 147.884 54.07 145.992 52.9984 144.172C52.1704 142.765 51.2403 141.753 50.2082 141.136C49.1517 140.476 47.9408 140.075 46.5754 139.932C45.1857 139.748 43.2971 139.662 40.9097 139.675C37.6826 139.682 35.1272 139.599 33.2434 139.427C31.3597 139.255 29.4831 138.716 27.6137 137.812C25.7612 136.841 24.214 135.301 22.972 133.192C21.6325 130.917 21.0183 128.549 21.1293 126.089C21.2816 123.604 22.1203 121.244 23.6453 119.009C25.1703 116.775 27.3185 114.841 30.0899 113.21C31.4962 112.382 32.9464 111.723 34.4405 111.233C35.9346 110.743 37.2584 110.437 38.412 110.315C38.923 110.237 39.355 110.261 39.7079 110.388C40.1022 110.49 40.5404 110.761 41.0224 111.201C42.9093 112.987 44.5711 115.1 46.008 117.54C46.3002 118.036 46.0947 118.492 45.3916 118.906C45.0193 119.125 44.619 119.249 44.1907 119.278C43.7624 119.308 43.4216 119.202 43.1684 118.961C38.7643 114.982 34.7009 114.088 30.9782 116.279C29.0341 117.424 27.8081 118.842 27.3001 120.534C26.7678 122.184 27.0983 124.022 28.2916 126.049C29.144 127.497 30.5851 128.431 32.615 128.851C34.6862 129.247 37.7345 129.458 41.7598 129.483C46.0894 129.552 49.526 130.09 52.0696 131.099C54.5889 132.067 56.6522 133.916 58.2595 136.646C60.6218 140.658 61.1332 144.507 59.7937 148.192C58.4712 151.811 55.597 154.924 51.1712 157.53Z" fill="#555555"/>
<path d="M87.1105 137.778C84.6202 139.022 82.0655 139.601 79.4467 139.515C76.8064 139.385 74.3809 138.612 72.1702 137.194C69.981 135.713 68.2534 133.705 66.9875 131.172C65.6787 128.553 65.089 125.762 65.2186 122.8C65.391 119.816 66.2718 117.068 67.8609 114.557C69.4285 112.003 71.5649 110.05 74.27 108.698C76.8033 107.433 79.433 106.897 82.1592 107.09C84.9068 107.22 87.4182 108.004 89.6933 109.443C91.9469 110.839 93.6638 112.717 94.8438 115.079C96.217 117.827 96.9033 120.65 96.9026 123.548C96.8804 126.403 96.0533 129.097 94.4213 131.629C92.8107 134.097 90.3738 136.147 87.1105 137.778ZM87.1435 134.622C89.4192 133.485 90.611 131.789 90.7188 129.535C90.8052 127.453 89.8614 124.437 87.8875 120.487C86.7718 118.254 85.452 116.365 83.9283 114.819C82.3831 113.23 80.7734 112.156 79.0992 111.598C77.4679 111.018 75.9438 111.082 74.5268 111.79C72.8093 112.648 71.7464 113.903 71.3382 115.556C70.9944 116.801 71.0477 118.25 71.4981 119.903C71.9915 121.535 72.8067 123.488 73.9439 125.764C74.9952 127.868 76.2935 129.714 77.8387 131.303C79.4268 132.871 81.058 133.987 82.7322 134.653C84.3849 135.276 85.8554 135.266 87.1435 134.622Z" fill="#555555"/>
<path d="M111.652 125.189C111.299 125.339 110.961 125.405 110.64 125.385C110.3 125.322 110.073 125.157 109.96 124.893C109.809 124.539 109.816 124.249 109.98 124.023C110.126 123.752 110.391 123.456 110.776 123.136C111.818 122.274 112.449 121.613 112.671 121.154C112.873 120.65 112.796 119.978 112.438 119.14L104.446 100.396C103.077 100.98 101.91 101.425 100.945 101.733C100.706 101.783 100.391 101.656 100 101.353C99.6544 101.031 99.4154 100.715 99.2836 100.406C99.1707 100.141 99.272 99.8891 99.5875 99.6502L102.695 96.2902C100.888 91.6859 100.211 87.5911 100.665 84.0056C101.145 80.3572 102.313 77.4065 104.17 75.1535C106.052 72.8376 108.208 71.1618 110.636 70.1263C113.418 68.9401 115.641 68.462 117.304 68.6919C118.968 68.9219 120.138 69.8316 120.816 71.4211C121.23 72.3925 121.339 73.2593 121.142 74.0216C120.927 74.7397 120.443 75.2588 119.693 75.5789C119.34 75.7295 118.93 75.7476 118.464 75.6333C117.979 75.4749 117.34 75.1996 116.546 74.8074C115.205 74.2314 113.948 73.8541 112.776 73.6755C111.604 73.4968 110.378 73.6805 109.097 74.2266C107.155 75.055 106.011 76.534 105.667 78.6637C105.367 80.7746 105.932 83.5079 107.363 86.8635L109.764 92.4931C109.99 93.0229 110.412 93.156 111.03 92.8924L118.779 89.5881C119.088 89.4563 119.378 89.4632 119.648 89.6086C119.9 89.7099 120.083 89.893 120.196 90.158C120.554 90.9969 120.688 91.8007 120.598 92.5695C120.629 92.7649 120.597 92.935 120.502 93.0798C120.452 93.2058 120.382 93.2876 120.294 93.3253L113.671 96.1494C112.92 96.4695 112.438 96.8058 112.223 97.1584C112.033 97.448 112.042 97.8356 112.249 98.3213L119.479 115.276C119.95 116.38 120.544 117.04 121.262 117.255C122.024 117.452 123.354 117.328 125.252 116.884C125.776 116.766 126.185 116.747 126.481 116.83C126.778 116.912 127.001 117.13 127.152 117.483C127.265 117.748 127.248 118.016 127.103 118.287C126.957 118.558 126.708 118.768 126.355 118.919C124.942 119.522 123.479 120.067 121.965 120.556C120.161 121.221 118.884 121.713 118.134 122.033C117.471 122.316 116.452 122.802 115.077 123.493C114.074 124.078 112.932 124.643 111.652 125.189Z" fill="#555555"/>
<path d="M150.561 110.408C147.858 111.4 145.543 111.432 143.616 110.503C141.69 109.575 140.222 107.736 139.213 104.987L133.479 89.3749C133.33 88.9694 133.073 88.757 132.708 88.7376C132.327 88.6732 131.722 88.7674 130.895 89.0202L130.151 89.2933C129.881 89.3925 129.581 89.2725 129.252 88.9332C128.923 88.5939 128.675 88.1989 128.51 87.7483C128.394 87.4329 128.446 87.158 128.667 86.9235C129.787 85.7963 130.904 84.3123 132.018 82.4716C133.177 80.6142 134.135 78.9073 134.893 77.3506C134.95 77.2274 135.072 77.0035 135.26 76.6789C135.431 76.3093 135.696 76.0583 136.057 75.9259C136.823 75.6446 137.301 75.9035 137.493 76.7026L138.452 80.5687L138.552 80.8391C138.7 81.2446 138.943 81.4878 139.28 81.5688C139.6 81.6047 140.053 81.5151 140.638 81.2999L148.546 78.3959C148.681 78.3463 148.874 78.4543 149.125 78.7201C149.376 78.9859 149.56 79.2764 149.675 79.5918C149.891 80.1776 149.999 80.7514 150.001 81.3132C150.003 81.875 149.913 82.189 149.733 82.2552L143.312 84.6132C142.231 85.0103 141.552 85.3877 141.274 85.7454C140.996 86.1031 140.99 86.6424 141.254 87.3633L146.02 100.34C146.748 102.322 147.685 103.691 148.832 104.446C149.962 105.156 151.225 105.255 152.622 104.742C153.794 104.311 154.662 103.89 155.226 103.479C155.791 103.067 156.337 102.534 156.864 101.88C156.921 101.757 157.039 101.662 157.22 101.596C157.4 101.53 157.585 101.615 157.774 101.853C157.992 102.028 158.167 102.296 158.299 102.657C158.399 102.927 158.108 103.596 157.426 104.665C156.745 105.733 155.791 106.825 154.564 107.94C153.382 109.039 152.048 109.862 150.561 110.408Z" fill="#555555"/>
<path d="M181.285 101.166C180.824 101.297 180.465 101.175 180.208 100.799L163.385 79.3122C162.022 77.5043 160.46 76.5765 158.7 76.5287C158.139 76.4887 157.717 76.4092 157.434 76.2902C157.184 76.112 157.006 75.8382 156.901 75.4689C156.769 75.0072 157.234 74.6252 158.296 74.3229C159.497 73.9812 160.578 73.7481 161.541 73.6237C162.767 73.3743 163.773 73.1379 164.558 72.9144C165.389 72.6778 166.438 72.3294 167.704 71.869C168.726 71.4282 169.861 71.0304 171.107 70.6755C171.476 70.5703 171.842 70.541 172.205 70.5875C172.554 70.5878 172.775 70.7495 172.867 71.0727C172.959 71.3959 172.916 71.6826 172.738 71.933C172.546 72.1372 172.2 72.4105 171.699 72.7529C170.821 73.3521 170.599 74.4134 171.033 75.9369C171.257 76.7217 171.605 77.4209 172.079 78.0345L179.952 88.5944C179.978 88.6867 180.061 88.7132 180.199 88.6737C180.338 88.6343 180.394 88.5684 180.367 88.4761L181.872 76.1447C181.946 75.1755 181.877 74.3217 181.667 73.583C181.483 72.9367 181.005 72.3989 180.234 71.9696C179.496 71.481 178.666 71.1935 177.743 71.1069C176.728 71.0466 176.135 70.7164 175.964 70.1162C175.819 69.6084 176.301 69.1968 177.409 68.8813C178.378 68.6053 179.414 68.3854 180.515 68.2216C181.834 67.9459 182.77 67.7292 183.324 67.5714C184.524 67.2297 185.636 66.8384 186.658 66.3976C188.017 65.911 189.042 65.5691 189.735 65.3719C190.104 65.2668 190.47 65.2374 190.833 65.2839C191.182 65.2842 191.403 65.446 191.495 65.7691C191.574 66.0461 191.547 66.3032 191.415 66.5405C191.27 66.7316 191.078 66.9358 190.841 67.1531C190.59 67.3243 190.425 67.4461 190.346 67.5186C189.172 68.3021 188.742 69.2479 189.058 70.3558C189.268 71.0945 189.702 71.919 190.361 72.8295L198.174 83.1817C198.346 83.4324 198.477 83.5446 198.57 83.5183C198.754 83.4657 198.837 83.3174 198.817 83.0735L200.055 71.1176C200.194 70.0299 200.093 69.0606 199.751 68.2097C199.54 67.4711 199.155 66.907 198.595 66.5175C198.022 66.0818 197.402 65.8339 196.737 65.774C196.176 65.7339 195.731 65.661 195.402 65.5552C195.118 65.4362 194.931 65.2152 194.839 64.892C194.76 64.615 194.862 64.3613 195.146 64.1308C195.43 63.9003 195.756 63.7325 196.125 63.6273C196.956 63.3907 197.847 63.1871 198.796 63.0166C199.838 62.8198 200.613 62.6491 201.121 62.5045C201.721 62.3336 202.516 62.0574 203.505 61.6759C203.644 61.6365 204.254 61.4129 205.335 61.0051C206.397 60.7028 207 60.8055 207.145 61.3134C207.316 61.9135 206.986 62.5066 206.154 63.0926C205.448 63.5931 204.861 64.3343 204.392 65.3162C203.969 66.2851 203.684 67.3892 203.538 68.6286L200.567 95.0024C200.487 95.4243 200.217 95.7009 199.755 95.8324C199.339 95.9507 199.01 95.8449 198.766 95.515L185.045 78.6102C184.9 78.4519 184.781 78.3858 184.689 78.4121C184.643 78.4252 184.583 78.567 184.51 78.8372L182.077 100.267C181.965 100.748 181.701 101.047 181.285 101.166Z" fill="#555555"/>
<path d="M229.025 87.8911C227.33 88.232 225.669 87.881 224.039 86.838C222.456 85.7856 221.504 84.4595 221.182 82.8596C220.869 81.3067 221.06 79.9462 221.756 78.7781C222.441 77.5629 223.687 76.3329 225.493 75.0881L231.489 70.9436C232.355 70.3778 232.853 69.9347 232.984 69.6145C233.153 69.2378 233.143 68.5788 232.954 67.6377L232.257 63.4448C232.039 62.1177 231.543 61.1158 230.771 60.4389C229.998 59.7621 229.047 59.5373 227.917 59.7646C227.306 59.8877 226.694 60.1332 226.083 60.5011C225.471 60.869 225.015 61.279 224.714 61.7312C224.442 62.0798 224.386 62.6541 224.547 63.4541L224.973 65.2045C225.067 65.6751 224.457 66.4101 223.14 67.4095C221.861 68.3524 220.751 68.9186 219.809 69.108C219.48 69.1743 219.198 69.1087 218.962 68.9113C218.726 68.7139 218.575 68.4505 218.509 68.1211C218.216 66.6624 218.929 64.8541 220.649 62.6963C222.049 60.8966 223.756 59.2801 225.769 57.8468C227.819 56.357 229.597 55.4606 231.103 55.1575C233.362 54.7029 235.325 55.0912 236.993 56.3224C238.651 57.5065 239.698 59.3032 240.134 61.7126L242.821 76.8887C242.982 77.9335 243.346 78.7661 243.911 79.3867C244.524 79.9979 245.16 80.2372 245.818 80.1046C246.854 79.8962 247.597 79.4529 248.048 78.7746C248.198 78.5485 248.344 78.4212 248.485 78.3928C248.72 78.3454 248.927 78.4017 249.107 78.5615C249.323 78.6648 249.455 78.834 249.503 79.0693C249.607 79.587 249.358 80.298 248.757 81.2024C248.127 82.2104 247.361 83.0256 246.458 83.648C245.565 84.3175 244.647 84.7469 243.706 84.9363C242.436 85.192 241.24 85.0899 240.119 84.63C239.055 84.2076 237.967 83.4229 236.855 82.2758L236.643 82.3184C235.365 83.9956 234.128 85.2726 232.934 86.1495C231.786 87.017 230.483 87.5975 229.025 87.8911ZM232.125 82.8605C233.301 82.6237 234.157 82.0108 234.693 81.0217C235.05 80.6071 235.138 79.8304 234.958 78.6915L234.19 74.1457L234.133 73.8634C234.01 73.2516 233.737 72.9884 233.313 73.0736C233.031 73.1304 232.697 73.2956 232.311 73.569C230.675 74.6818 229.56 75.7139 228.969 76.6654C228.414 77.5604 228.265 78.6431 228.521 79.9137C228.767 81.1371 229.229 81.9744 229.907 82.4254C230.586 82.8764 231.325 83.0215 232.125 82.8605Z" fill="#555555"/>
<path d="M258.093 81.599C257.665 81.6596 257.298 81.6388 256.993 81.5367C256.729 81.3803 256.576 81.1595 256.536 80.8743C256.482 80.4941 256.56 80.1921 256.771 79.9683C257.029 79.7378 257.433 79.5109 257.983 79.2875C258.941 78.8609 259.583 78.4306 259.909 77.9965C260.276 77.5081 260.409 76.9075 260.308 76.1946L258.035 60.1549C257.867 58.9668 257.545 58.067 257.071 57.4555C256.637 56.7898 255.952 56.4021 255.015 56.2924C254.418 56.1832 254.076 55.8196 253.988 55.2018C253.907 54.6315 254.118 54.238 254.621 54.0213C255.952 53.4933 257.402 52.7788 258.971 51.8777C260.588 50.9699 261.922 50.1262 262.976 49.3468C263.675 48.8113 264.12 48.5301 264.31 48.5031C264.691 48.4492 264.914 48.6599 264.982 49.1352L265.556 54.7259C265.569 54.821 265.607 54.9127 265.668 55.001C265.729 55.0893 265.783 55.1301 265.83 55.1233C266.837 53.3324 268.047 51.7792 269.46 50.4639C270.867 49.101 272.331 48.3118 273.852 48.0963C275.182 47.9077 276.245 48.048 277.038 48.5173C277.825 48.9391 278.283 49.6014 278.411 50.5044C278.552 51.5024 278.3 52.629 277.653 53.8841C277.055 55.1325 276.304 55.8206 275.401 55.9486C274.878 56.0227 274.006 55.8554 272.784 55.4468C271.468 55.0516 270.572 54.8877 270.097 54.955C268.719 55.1503 267.673 55.8076 266.959 56.9269C266.238 57.9986 266.046 59.7226 266.383 62.0989L268.161 74.6455C268.275 75.4534 268.651 76.0546 269.289 76.449C269.92 76.7959 270.955 77.0856 272.394 77.318C272.984 77.3797 273.412 77.4888 273.676 77.6453C273.941 77.8017 274.097 78.0462 274.144 78.3789C274.231 78.9967 273.847 79.3663 272.992 79.4875C271.519 79.6963 270.13 79.8203 268.827 79.8596C267.198 79.9935 265.979 80.1178 265.171 80.2323C264.458 80.3333 263.348 80.5391 261.841 80.8497C260.72 81.1539 259.471 81.4037 258.093 81.599Z" fill="#555555"/>
<path d="M302.508 77.0842C299.926 77.3012 297.55 76.8264 295.38 75.6599C293.259 74.4893 291.526 72.7804 290.181 70.5331C288.832 68.2379 288.031 65.5836 287.778 62.5702C287.537 59.7004 287.984 56.9895 289.118 54.4375C290.3 51.8816 291.979 49.7898 294.154 48.162C296.33 46.5342 298.781 45.6058 301.507 45.3768C304.52 45.1237 307.108 45.8215 309.27 47.4704C311.431 49.1193 312.628 51.3308 312.861 54.105C312.934 54.966 312.797 55.6278 312.45 56.0904C312.152 56.549 311.62 56.8105 310.854 56.8748L296.29 58.0981C295.62 58.1544 295.158 58.3859 294.903 58.7926C294.648 59.1994 294.559 59.8572 294.635 60.766C294.804 62.7749 295.387 64.5563 296.384 66.1103C297.382 67.6643 298.662 68.8573 300.226 69.6894C301.836 70.5174 303.575 70.8531 305.44 70.6964C307.927 70.4875 310.233 69.2582 312.356 67.0086C312.706 66.5938 313.001 66.3764 313.24 66.3563C313.432 66.3402 313.607 66.4218 313.767 66.6011C313.922 66.7326 314.01 66.9179 314.03 67.157C314.082 67.7788 313.864 68.6161 313.374 69.6687C312.666 71.5587 311.335 73.2118 309.383 74.6282C307.431 76.0446 305.139 76.8632 302.508 77.0842ZM301.149 54.8721C303.253 54.6953 304.774 54.4472 305.71 54.1277C306.133 53.9958 306.296 53.356 306.199 52.208C306.091 50.9165 305.498 49.8825 304.421 49.1059C303.388 48.2775 302.154 47.9235 300.72 48.0441C299.715 48.1284 298.761 48.5217 297.856 49.2239C296.948 49.8782 296.223 50.7098 295.681 51.7186C295.184 52.6757 294.973 53.6086 295.049 54.5174C295.098 55.0913 295.457 55.3502 296.126 55.294L301.149 54.8721Z" fill="#555555"/>
<path d="M370.533 74.8449C369.237 74.8026 366.722 74.6243 362.986 74.3101C361.884 74.226 360.711 74.1396 359.465 74.0509C358.219 73.9621 356.996 73.8981 355.797 73.8589C354.886 73.8291 353.469 73.8308 351.547 73.864C349.433 73.891 347.728 73.8833 346.433 73.8409C345.953 73.8252 345.548 73.7159 345.219 73.5131C344.937 73.3118 344.801 73.0672 344.811 72.7793C344.823 72.3955 344.976 72.1124 345.271 71.9299C345.566 71.6994 346.052 71.5232 346.729 71.4013C348.564 71.0771 349.829 70.5901 350.522 69.9405C351.216 69.2908 351.588 68.1983 351.638 66.6632L352.701 34.1365C352.753 32.5534 352.454 31.415 351.805 30.7214C351.204 29.9814 349.975 29.3889 348.117 28.944C347.496 28.8276 347.021 28.668 346.692 28.4651C346.412 28.2158 346.279 27.8753 346.293 27.4436C346.302 27.1557 346.454 26.9205 346.748 26.7381C347.09 26.5571 347.501 26.4745 347.981 26.4902C349.084 26.5263 350.738 26.6284 352.941 26.7965C354.953 26.9583 356.487 27.0564 357.542 27.091C358.55 27.1239 360.832 27.1024 364.388 27.0266C367.514 26.8887 369.869 26.8456 371.452 26.8974C376.729 27.0699 381.302 28.2279 385.17 30.3715C389.039 32.467 391.972 35.3004 393.969 38.8715C396.013 42.4442 396.963 46.4374 396.819 50.851C396.675 55.2647 395.461 59.3312 393.178 63.0506C390.943 66.7716 387.845 69.7199 383.884 71.8956C379.973 74.0249 375.522 75.008 370.533 74.8449ZM369.634 71.5018C374.671 71.6664 378.664 69.996 381.612 66.4905C384.608 62.9865 386.205 58.2121 386.402 52.1674C386.542 47.8976 385.945 44.1081 384.613 40.7988C383.28 37.4895 381.347 34.929 378.813 33.1172C376.28 31.2575 373.383 30.2743 370.12 30.1676C368.058 30.1002 366.496 30.1211 365.436 30.2306C364.425 30.2936 363.624 30.5555 363.033 31.0165C362.443 31.4294 362.132 32.1396 362.099 33.1471L361.064 64.8102C360.987 67.1609 361.676 68.8403 363.132 69.8484C364.636 70.8581 366.803 71.4092 369.634 71.5018Z" fill="#555555"/>
<path d="M417.702 78.777C415.126 78.4865 412.888 77.5579 410.988 75.9911C409.135 74.4296 407.768 72.4158 406.887 69.9495C406.011 67.4355 405.743 64.6761 406.082 61.6711C406.404 58.8092 407.371 56.2373 408.981 53.9553C410.638 51.6787 412.692 49.9541 415.143 48.7813C417.594 47.6085 420.179 47.1755 422.898 47.482C425.902 47.8209 428.304 49.0095 430.103 51.0479C431.902 53.0864 432.646 55.4888 432.334 58.2553C432.237 59.1138 431.974 59.7362 431.544 60.1225C431.161 60.5141 430.589 60.6669 429.825 60.5808L415.301 58.943C414.634 58.8677 414.135 59.0047 413.806 59.3541C413.477 59.7034 413.261 60.3312 413.159 61.2374C412.933 63.2407 413.158 65.1016 413.834 66.8202C414.509 68.5387 415.533 69.9583 416.904 71.079C418.322 72.2051 419.962 72.873 421.822 73.0828C424.302 73.3625 426.803 72.6059 429.324 70.8131C429.748 70.4745 430.08 70.3187 430.318 70.3456C430.509 70.3671 430.665 70.4813 430.787 70.6882C430.914 70.8475 430.964 71.0463 430.937 71.2848C430.867 71.9049 430.489 72.6835 429.804 73.6206C428.741 75.3363 427.114 76.6986 424.923 77.7074C422.733 78.7163 420.325 79.0728 417.702 78.777ZM420.696 56.7256C422.795 56.9622 424.334 57.0151 425.315 56.8842C425.755 56.8372 426.04 56.2413 426.169 55.0966C426.314 53.8087 425.934 52.6791 425.029 51.7075C424.178 50.6937 423.036 50.1061 421.605 49.9448C420.604 49.8318 419.591 50.0316 418.567 50.5441C417.549 51.0089 416.676 51.6833 415.948 52.5673C415.273 53.409 414.885 54.283 414.783 55.1893C414.718 55.7617 415.02 56.0855 415.688 56.1608L420.696 56.7256Z" fill="#555555"/>
<path d="M453.172 84.4027C452.936 84.3611 452.721 84.0553 452.529 83.4854C452.376 82.971 452.262 82.5123 452.187 82.1091C452.12 81.6587 452.056 81.3306 451.995 81.1249C451.758 80.2546 451.35 78.282 450.77 75.2069C450.414 73.6332 449.977 71.826 449.459 69.7853C448.941 67.7445 448.572 66.2418 448.352 65.277C447.725 63.0222 447.067 60.3962 446.376 57.399C445.775 55.0024 444.802 53.4665 443.459 52.7913C443.02 52.519 442.722 52.2716 442.566 52.0492C442.41 51.8268 442.366 51.5265 442.432 51.1484C442.516 50.6756 443.101 50.535 444.188 50.7265C445.559 50.9679 446.657 51.2344 447.483 51.526C448.601 51.8204 449.609 52.0466 450.507 52.2048C451.406 52.3629 452.525 52.5113 453.865 52.6498C454.977 52.6994 456.243 52.8491 457.661 53.0988C458.039 53.1654 458.381 53.2988 458.687 53.4989C459.001 53.6517 459.129 53.8935 459.071 54.2245C459.013 54.5554 458.849 54.7946 458.579 54.942C458.318 55.0422 457.887 55.1369 457.286 55.2261C456.171 55.4684 455.476 56.3696 455.202 57.9296C455.027 58.9223 454.997 59.6481 455.111 60.1068L457.827 73.7445C457.913 73.8084 457.984 73.8209 458.04 73.7819L464.771 62.539C465.227 61.8882 465.538 61.0901 465.705 60.1446C466.004 58.4428 465.487 57.2306 464.152 56.5082C463.579 56.1636 463.187 55.8996 462.975 55.7162C462.772 55.4855 462.7 55.2046 462.758 54.8737C462.858 54.3065 463.452 54.1186 464.539 54.31C465.201 54.4266 465.949 54.607 466.783 54.8514C467.996 55.1624 468.885 55.3678 469.453 55.4677C469.973 55.5593 470.761 55.6493 471.818 55.7379C472.685 55.7932 473.474 55.8833 474.183 56.0081C475.223 56.1913 475.697 56.5428 475.605 57.0628C475.539 57.441 475.371 57.7039 475.101 57.8513C474.879 58.0071 474.491 58.1338 473.937 58.2313C473.037 58.3651 472.137 58.7672 471.239 59.4377C470.341 60.1081 469.556 60.969 468.884 62.0203L460.943 74.7318L460.138 75.9792L457.508 80.1218C457.164 80.6948 456.695 81.4165 456.103 82.287C455.511 83.1576 454.936 83.9335 454.378 84.615L453.172 84.4027Z" fill="#555555"/>
<path d="M489.526 91.4577C487.006 90.8509 484.9 89.6526 483.208 87.8627C481.563 86.084 480.456 83.9166 479.886 81.3602C479.328 78.7572 479.403 75.9857 480.111 73.0458C480.785 70.2458 482.062 67.8132 483.942 65.7479C485.869 63.6938 488.12 62.2365 490.698 61.3759C493.275 60.5154 495.893 60.4053 498.553 61.0459C501.493 61.7539 503.73 63.2305 505.262 65.4758C506.795 67.7211 507.236 70.1971 506.584 72.9037C506.382 73.7437 506.044 74.3287 505.569 74.6588C505.141 75.0001 504.554 75.0809 503.807 74.9011L489.598 71.4792C488.944 71.3219 488.433 71.3962 488.063 71.7021C487.693 72.008 487.401 72.6042 487.188 73.4909C486.716 75.4509 486.709 77.3253 487.167 79.1142C487.624 80.9032 488.464 82.4385 489.686 83.7201C490.955 85.0131 492.499 85.8787 494.319 86.3169C496.746 86.9013 499.321 86.4599 502.044 84.9927C502.507 84.7092 502.855 84.5956 503.089 84.6518C503.275 84.6967 503.416 84.8294 503.511 85.0498C503.617 85.2235 503.642 85.427 503.586 85.6604C503.44 86.267 502.969 86.9929 502.173 87.838C500.906 89.4091 499.123 90.5596 496.824 91.2897C494.526 92.0198 492.093 92.0758 489.526 91.4577ZM495.225 69.9461C497.278 70.4405 498.8 70.6835 499.789 70.6749C500.232 70.6827 500.588 70.1266 500.857 69.0066C501.161 67.7466 500.924 66.5787 500.146 65.5027C499.426 64.3913 498.366 63.667 496.966 63.3299C495.986 63.0939 494.957 63.1668 493.877 63.5487C492.809 63.884 491.859 64.4452 491.028 65.2324C490.254 65.9842 489.761 66.8035 489.547 67.6901C489.412 68.2501 489.672 68.6088 490.325 68.7661L495.225 69.9461Z" fill="#555555"/>
<path d="M511.036 96.2095C510.667 96.1009 510.365 95.9369 510.13 95.7173C509.894 95.4978 509.817 95.2499 509.898 94.9737C509.993 94.6514 510.206 94.4388 510.537 94.3361C510.881 94.1873 511.333 94.0954 511.894 94.0605C512.046 94.0552 512.425 94.0418 513.032 94.0205C513.685 94.0127 514.203 93.8654 514.588 93.5785C514.973 93.2915 515.254 92.8488 515.43 92.2502L525.362 58.5473C525.769 57.1661 525.865 55.9932 525.649 55.0288C525.492 54.0318 524.918 53.2622 523.927 52.7199C523.711 52.6061 523.56 52.4367 523.476 52.2118C523.439 52.0005 523.46 51.7567 523.542 51.4805C523.705 50.9279 524.007 50.6667 524.448 50.6968C526.458 50.8387 529.479 50.778 533.509 50.5147L535.123 50.3897C535.44 50.3329 535.69 50.3317 535.874 50.386C536.289 50.5081 536.428 50.7994 536.292 51.2598C536.197 51.5821 535.911 52.2984 535.434 53.4088C534.97 54.4731 534.501 55.811 534.026 57.4225L523.116 94.4404C522.886 95.2231 522.907 95.8299 523.18 96.2607C523.467 96.6455 523.814 96.9979 524.22 97.3177C524.64 97.5916 524.912 97.7718 525.036 97.8586C526 98.493 526.394 99.1094 526.218 99.708C526.136 99.9842 525.937 100.151 525.62 100.207C525.349 100.278 525.007 100.252 524.592 100.13C523.625 99.8447 522.419 99.4391 520.973 98.9128C519.619 98.4137 518.55 98.0488 517.767 97.8181C516.985 97.5874 515.935 97.3282 514.619 97.0403C513.565 96.8799 512.371 96.603 511.036 96.2095Z" fill="#555555"/>
<path d="M547.841 108.76C545.219 107.825 543.033 106.382 541.282 104.432C539.548 102.437 538.427 100.152 537.919 97.5753C537.473 94.9697 537.725 92.3333 538.677 89.666C539.661 86.9083 541.267 84.5508 543.494 82.5935C545.767 80.6523 548.359 79.3859 551.271 78.7942C554.2 78.1573 557.088 78.3469 559.936 79.3632C562.603 80.3149 564.811 81.8416 566.558 83.943C568.367 86.0154 569.539 88.3705 570.076 91.0083C570.629 93.6009 570.462 96.1404 569.575 98.6269C568.542 101.52 566.98 103.97 564.889 105.975C562.813 107.936 560.296 109.204 557.339 109.78C554.443 110.326 551.277 109.986 547.841 108.76ZM550.141 106.6C552.537 107.455 554.586 107.141 556.287 105.658C557.849 104.279 559.372 101.51 560.856 97.3508C561.695 94.9999 562.145 92.7396 562.206 90.5698C562.283 88.3548 561.943 86.4499 561.187 84.8551C560.476 83.2764 559.375 82.2209 557.883 81.6886C556.075 81.0433 554.433 81.1455 552.958 81.9951C551.821 82.6089 550.812 83.6505 549.931 85.1198C549.096 86.6053 548.25 88.5461 547.395 90.9422C546.605 93.1574 546.171 95.3725 546.094 97.5875C546.063 99.8186 546.386 101.769 547.065 103.438C547.759 105.062 548.785 106.116 550.141 106.6Z" fill="#555555"/>
<path d="M565.819 135.029C565.511 134.894 565.243 134.671 565.013 134.359C564.807 134.112 564.762 133.856 564.878 133.592C565.11 133.065 565.799 132.87 566.945 133.008C568.003 133.106 568.807 133.067 569.357 132.89C569.932 132.776 570.374 132.367 570.684 131.664L584.873 99.4422C585.24 98.6075 585.354 97.6348 585.214 96.5241C585.073 95.4134 584.593 94.5987 583.773 94.08C583.391 93.7548 583.336 93.2847 583.607 92.6697C583.82 92.1864 584.162 91.944 584.635 91.9424C588.366 92.6412 591.766 92.9585 594.837 92.8944C594.944 92.8892 595.105 92.8813 595.319 92.8708C595.553 92.8164 595.714 92.8086 595.801 92.8473C596.153 93.002 596.222 93.321 596.009 93.8042L595.152 95.3935C594.672 96.1262 594.277 96.844 593.968 97.5469C593.794 97.9423 593.731 98.2032 593.781 98.3298C594.496 98.0154 595.579 97.7583 597.031 97.5584C598.546 97.3339 600.144 97.2772 601.826 97.3884C603.508 97.4997 604.986 97.8358 606.26 98.3967C608.5 99.3833 610.184 100.859 611.312 102.824C612.459 104.745 613.037 106.888 613.045 109.252C613.116 111.591 612.668 113.859 611.701 116.055C610.521 118.735 608.699 121.027 606.234 122.931C603.789 124.791 601.054 126 598.029 126.556C595.024 127.068 592.16 126.725 589.436 125.525C588.601 125.158 587.668 124.537 586.637 123.663C585.586 122.833 584.784 122.034 584.231 121.266C584.143 121.228 583.971 121.44 583.714 121.904C583.457 122.368 583.261 122.754 583.126 123.061L578.106 134.461C577.739 135.296 577.763 136.014 578.179 136.617C578.596 137.22 579.354 138 580.453 138.956C581.285 139.689 581.584 140.319 581.352 140.846C581.236 141.11 581.017 141.25 580.695 141.265C580.398 141.344 580.096 141.316 579.789 141.181C578.383 140.562 577.094 139.916 575.922 139.242C574.379 138.458 573.256 137.911 572.553 137.601C571.895 137.311 570.843 136.901 569.398 136.369C568.286 136.037 567.093 135.59 565.819 135.029ZM590.852 122.845C591.687 123.212 592.818 123.264 594.245 123.001C595.672 122.738 597.149 121.946 598.674 120.625C600.244 119.323 601.6 117.376 602.741 114.784C604.617 110.523 605.104 107.276 604.199 105.042C603.339 102.827 602.03 101.333 600.273 100.559C599.438 100.192 598.472 100.002 597.376 99.9916C596.298 99.9368 595.314 100.028 594.423 100.265C593.595 100.477 593.104 100.759 592.949 101.111L588.146 111.662C587.585 112.935 587.3 114.357 587.291 115.926C587.281 117.496 587.576 118.911 588.175 120.171C588.818 121.45 589.71 122.342 590.852 122.845Z" fill="#555555"/>
<path d="M623.997 141.936C621.699 140.737 619.946 139.064 618.738 136.917C617.573 134.793 617.023 132.422 617.09 129.804C617.179 127.143 617.923 124.472 619.323 121.791C620.655 119.238 622.483 117.187 624.807 115.639C627.174 114.113 629.712 113.244 632.421 113.034C635.129 112.823 637.697 113.351 640.122 114.617C642.803 116.016 644.615 117.99 645.559 120.54C646.502 123.09 646.329 125.599 645.041 128.067C644.642 128.833 644.172 129.318 643.631 129.524C643.134 129.751 642.544 129.687 641.863 129.332L628.906 122.57C628.31 122.259 627.796 122.207 627.363 122.414C626.93 122.621 626.502 123.129 626.08 123.938C625.148 125.725 624.687 127.542 624.698 129.388C624.708 131.235 625.151 132.928 626.026 134.467C626.944 136.029 628.233 137.243 629.892 138.109C632.105 139.264 634.71 139.46 637.708 138.696C638.226 138.533 638.591 138.507 638.804 138.618C638.974 138.707 639.079 138.87 639.117 139.107C639.178 139.301 639.153 139.505 639.042 139.717C638.754 140.27 638.121 140.861 637.144 141.488C635.534 142.705 633.525 143.389 631.118 143.541C628.711 143.692 626.337 143.157 623.997 141.936ZM634.737 122.445C636.609 123.423 638.027 124.027 638.989 124.258C639.416 124.373 639.896 123.92 640.429 122.899C641.029 121.75 641.082 120.559 640.588 119.327C640.159 118.074 639.306 117.115 638.029 116.448C637.136 115.982 636.119 115.803 634.979 115.912C633.862 115.979 632.804 116.293 631.807 116.856C630.874 117.398 630.197 118.073 629.775 118.881C629.509 119.392 629.673 119.803 630.269 120.114L634.737 122.445Z" fill="#555555"/>
<path d="M644.136 151.936C643.765 151.714 643.493 151.468 643.319 151.197C643.212 150.909 643.231 150.642 643.379 150.394C643.576 150.064 643.826 149.879 644.131 149.837C644.477 149.819 644.934 149.897 645.502 150.068C646.515 150.337 647.285 150.405 647.812 150.272C648.404 150.123 648.885 149.739 649.254 149.12L657.555 135.209C658.169 134.178 658.484 133.276 658.499 132.502C658.579 131.712 658.289 130.98 657.629 130.307C657.233 129.846 657.195 129.349 657.514 128.813C657.81 128.318 658.221 128.144 658.748 128.291C660.115 128.716 661.693 129.07 663.48 129.354C665.308 129.662 666.877 129.844 668.186 129.898C669.066 129.921 669.589 129.981 669.754 130.079C670.084 130.276 670.126 130.581 669.88 130.993L666.817 135.705C666.768 135.787 666.739 135.882 666.731 135.989C666.723 136.096 666.74 136.162 666.781 136.187C668.689 135.425 670.606 134.975 672.532 134.839C674.482 134.661 676.117 134.966 677.436 135.753C678.59 136.442 679.329 137.218 679.652 138.082C680 138.904 679.94 139.707 679.473 140.49C678.956 141.355 678.052 142.074 676.761 142.645C675.512 143.241 674.495 143.305 673.712 142.838C673.258 142.567 672.685 141.889 671.991 140.804C671.214 139.67 670.62 138.98 670.207 138.734C669.012 138.021 667.785 137.876 666.527 138.299C665.293 138.68 664.061 139.902 662.831 141.963L656.338 152.845C655.92 153.545 655.835 154.249 656.084 154.957C656.357 155.623 656.981 156.498 657.955 157.582C658.376 158.001 658.64 158.354 658.748 158.642C658.855 158.93 658.823 159.218 658.651 159.507C658.331 160.043 657.8 160.089 657.058 159.647C655.781 158.884 654.622 158.109 653.583 157.321C652.231 156.403 651.204 155.734 650.503 155.316C649.885 154.947 648.892 154.41 647.524 153.706C646.461 153.239 645.331 152.649 644.136 151.936Z" fill="#555555"/>
</svg>
