<svg width="400" height="400" viewBox="0 0 400 400" fill="none" xmlns="http://www.w3.org/2000/svg">
<path fill-rule="evenodd" clip-rule="evenodd" d="M116.953 203.787C116.593 203.787 120.9 212.9 121.02 212.9C130.42 229.673 148.54 240.1 179.107 242.993C174.747 246.247 169.507 252.42 168.78 259.553C163.293 263.04 152.26 264.193 143.687 261.533C131.667 257.807 127.067 234.427 109.073 237.76C105.18 238.473 105.953 241 109.32 243.153C114.807 246.64 119.967 251.007 123.947 260.293C127.007 267.427 133.433 280.167 153.767 280.167C161.833 280.167 167.487 279.213 167.487 279.213C167.487 279.213 167.64 297.42 167.64 304.5C167.64 312.667 156.427 314.967 156.427 318.893C156.427 320.447 160.14 320.593 163.12 320.593C169.013 320.593 181.273 315.76 181.273 307.273C181.273 300.533 181.387 277.873 181.387 273.9C181.387 265.233 186.113 262.487 186.113 262.487C186.113 262.487 186.7 308.753 184.987 314.967C182.973 322.26 179.34 321.227 179.34 324.48C179.34 329.32 194.1 325.673 198.993 315.04C202.773 306.78 201.12 261.373 201.12 261.373L205.153 261.293C205.153 261.293 205.38 282.073 205.24 291.573C205.1 301.413 204.42 313.853 210.367 319.72C214.273 323.58 226.927 330.347 226.927 324.16C226.927 320.567 219.993 317.613 219.993 307.887V263.12C225.533 263.12 224.7 277.84 224.7 277.84L225.107 305.193C225.107 305.193 223.88 315.153 236.073 319.32C240.373 320.807 249.573 321.207 250.007 318.72C250.44 316.233 238.927 312.533 238.82 304.827C238.753 300.113 239.033 297.367 239.033 276.913C239.033 256.46 236.24 248.9 226.5 242.873C256.553 239.84 275.16 232.533 284.22 212.967C284.927 212.987 287.92 203.827 287.527 203.827C289.56 196.44 290.66 187.7 290.873 177.353C290.82 149.287 277.153 139.36 274.533 134.7C278.4 113.453 273.88 103.787 271.787 100.467C264.04 97.76 244.847 107.433 234.353 114.247C217.26 109.333 181.113 109.807 167.56 115.513C142.553 97.92 129.32 100.613 129.32 100.613C129.32 100.613 120.767 115.673 127.06 137.713C118.833 148.02 112.7 155.313 112.7 174.64C112.707 185.533 114.013 195.28 116.953 203.787ZM0 0H400V400H0V0Z" fill="#181818"/>
</svg>
