<svg width="54" height="54" viewBox="0 0 54 54" fill="none" xmlns="http://www.w3.org/2000/svg">
<rect width="53.73" height="53.73" fill="#181818"/>
<path d="M47 7H7V47H47V7Z" fill="#181818"/>
<path d="M18.4696 20.9584H11.7695V41.1118H18.4696V20.9584Z" fill="white"/>
<path d="M15.165 11.2407C12.8727 11.2407 11.375 12.7477 11.375 14.723C11.375 16.6567 12.8272 18.2053 15.0763 18.2053H15.1196C17.4558 18.2053 18.9099 16.6567 18.9099 14.723C18.8666 12.7477 17.4559 11.2407 15.165 11.2407V11.2407Z" fill="white"/>
<path d="M34.9123 20.4845C31.3584 20.4845 29.7664 22.439 28.8751 23.8118V20.9584H22.1768C22.2656 22.8488 22.1768 41.1117 22.1768 41.1117H28.8749V29.8567C28.8749 29.2542 28.9183 28.652 29.0959 28.2214C29.5793 27.0184 30.6822 25.772 32.5328 25.772C34.9556 25.772 35.9263 27.6208 35.9263 30.3289V41.1117H42.6248V29.5547C42.6248 23.3643 39.3197 20.4845 34.9123 20.4845V20.4845Z" fill="white"/>
</svg>
